<svg version="1" xmlns="http://www.w3.org/2000/svg" width="346.667" height="346.667" viewBox="0 0 260.000000 260.000000"><path d="M13.5 8.9c-1.1.5-2.9 1.9-4 3.1-2 2.2-2 3.6-2 118.1V246l2.8 2.7 2.7 2.8h234l2.7-2.8 2.8-2.7V14l-2.8-2.7-2.7-2.8-115.8-.2c-63.6-.1-116.6.2-117.7.6zm163.1 65.3c.3.4.2 3-.3 5.9l-.8 5.3-6.7.1c-9 0-10.8 1.7-11.5 10.9l-.6 6.6H172v10h-15v65h-13v-65h-11v-10h10.7l.5-8.8c.7-12 4.2-17.5 12.7-20.3 2.8-.9 18.7-.6 19.7.3zM65.7 103.1c3.2 1 10.3 7.9 10.3 10 0 .6 1.8-.8 4.1-3.1 5.7-5.9 11.8-8.4 20.1-8.3 9.1 0 15.2 3.1 19.3 9.8l3 4.8.3 30.9.3 30.8H110l-.1-26.8c0-29.7-.4-32.3-5.8-35.9-8.5-5.7-21.1-.3-24.1 10.5-.5 2.1-1 14.4-1 27.9V178H66v-22.8c-.1-32.6-1-37.8-7.1-40.9-5.3-2.7-14.2-.8-18.6 3.9-5 5.3-5.6 8.6-6.1 35l-.5 24.8H21v-75h12v9.1l4.8-3.9c8.4-6.9 17-8.5 27.9-5.1zm154 .5c8.1 2.2 13.6 8.1 15.6 16.5.6 2.4.4 2.7-3.1 3.3-7.3 1.2-8.9.8-10.2-2.3-1.8-4.4-5-6.9-10.3-8-11.6-2.7-22.2 2.7-20.3 10.3.9 3.8 4 5.3 19.1 9.7 7.4 2.1 15 4.6 16.8 5.5 7.6 3.8 11 9.2 11.1 17.4 0 9.9-6.2 18.1-16.6 21.6-6.5 2.3-20.2 2.5-27.2.5-7-2.1-14.2-9-16.6-16.1-1-3-1.6-5.8-1.2-6.2.4-.4 3.3-1 6.4-1.4 5.1-.6 5.8-.5 6.3 1.2 2.7 8.5 7.4 12.3 16.3 13.1 11.1 1 19.2-3.7 19.2-11.1 0-5.1-3.1-7.1-17.5-11.2-15.8-4.5-20.6-6.6-24.4-11-4.2-4.7-5.6-10.3-4-16.6 3.4-14.4 20.4-20.7 40.6-15.2z"/></svg>